# xmcd
#
# Track frame offsets:
#	150
#	17343
#	32470
#	47317
#	62955
#	80254
#	101049
#	117110
#	128035
#	144862
#	162005
#	178167
#	194605
#	211125
#	225523
#
# Disc length: 3249 seconds
#
# Revision: 1
# Processed by: cddbd v1.5.2PL0 Copyright (c) Steve Scherf et al.
# Submitted via: audiograbber 1.83.01
#
DISCID=b60caf0f
DTITLE=Various Artist - 200 Country Hits 1978-1985 Disc 6
DYEAR=1900
DGENRE=Karaoke
TTITLE0=The Oak Ridge Boys - Elvira
TTITLE1=Eddie Rabbit - I love a rainy night
TTITLE2=Dottie West and Kenny Rogers - What are we doin in love
TTITLE3=Rosanne Cash - Seven year ache
TTITLE4=The Oak Ridge boys - Fancy free
TTITLE5=Willie Nelson - Angel flying to close to the ground
TTITLE6=Alabama - Love in the first degree
TTITLE7=Charly McClain - Who's cheatin who
TTITLE8=Alabama - Old flame
TTITLE9=T.G. Sheppard - I loved em every one
TTITLE10=Shelley West and David Frizzell - You're the reason God made Oklahoma
TTITLE11=Razzy Bailey - Friends
TTITLE12=Eddie Rabbit - Step by step
TTITLE13=T.G. Sheppard - Only one you
TTITLE14=Crystal Gayle - Too many lovers
EXTD=
EXTT0=
EXTT1=
EXTT2=
EXTT3=
EXTT4=
EXTT5=
EXTT6=
EXTT7=
EXTT8=
EXTT9=
EXTT10=
EXTT11=
EXTT12=
EXTT13=
EXTT14=
PLAYORDER=
